<?xml version="1.0" encoding="UTF-8"?>
<svg xmlns="http://www.w3.org/2000/svg"
     width="1138" height="687" viewBox="0 0 1138 687"
     role="img" aria-labelledby="title desc">
  <title id="title">AI2Web logo</title>
  <desc id="desc">AI2W monogram with AI2WEB wordmark, transparent background.</desc>
  <path d="M 948 624 L 948 630 L 1110 630 L 1109 624 Z M 20 625 L 20 630 L 201 630 L 201 624 Z M 839 584 L 839 665 L 876 666 L 894 661 L 901 653 L 903 645 L 900 632 L 889 624 L 897 617 L 899 613 L 899 600 L 896 593 L 892 589 L 879 584 Z M 853 631 L 882 631 L 887 635 L 889 645 L 885 651 L 879 654 L 854 654 Z M 853 597 L 879 597 L 885 602 L 886 611 L 879 618 L 855 619 L 853 617 Z M 727 584 L 727 665 L 783 665 L 782 653 L 768 654 L 740 652 L 740 632 L 742 630 L 776 630 L 776 619 L 741 618 L 740 598 L 742 596 L 783 596 L 783 584 Z M 557 584 L 586 665 L 596 665 L 613 617 L 616 613 L 635 665 L 646 664 L 675 584 L 660 584 L 640 640 L 638 639 L 619 584 L 612 584 L 592 640 L 590 639 L 572 584 Z M 380 584 L 380 665 L 394 665 L 394 584 Z M 280 584 L 244 665 L 258 665 L 266 649 L 305 649 L 312 665 L 327 665 L 292 585 Z M 285 604 L 287 605 L 300 636 L 299 638 L 271 637 Z M 462 588 L 453 598 L 453 603 L 464 607 L 467 601 L 472 597 L 485 595 L 494 600 L 497 606 L 497 611 L 494 618 L 454 655 L 454 665 L 511 665 L 511 654 L 476 653 L 507 622 L 510 614 L 510 601 L 508 596 L 501 588 L 488 583 L 476 583 Z M 685 151 L 825 472 L 902 295 L 909 284 L 987 478 L 1028 373 L 1028 367 L 1117 151 L 1054 152 L 986 335 L 911 151 L 826 341 L 748 151 Z M 349 151 L 348 376 L 399 484 L 400 151 Z M 217 146 L 40 509 L 102 509 L 125 462 L 279 462 L 255 410 L 149 409 L 190 321 L 215 272 L 217 273 L 324 509 L 385 509 Z M 531 160 L 514 176 L 506 188 L 498 208 L 495 230 L 538 230 L 543 212 L 556 197 L 571 190 L 593 189 L 612 197 L 626 213 L 630 225 L 630 245 L 627 255 L 617 272 L 454 445 L 447 464 L 447 506 L 699 504 L 708 513 L 723 520 L 740 521 L 757 515 L 768 505 L 774 495 L 777 485 L 777 467 L 771 452 L 765 444 L 756 437 L 742 432 L 724 433 L 710 440 L 699 453 L 693 467 L 495 466 L 653 299 L 669 272 L 676 243 L 675 218 L 669 196 L 656 175 L 635 157 L 609 147 L 576 145 L 551 150 Z M 729 451 L 741 451 L 748 454 L 756 462 L 760 472 L 760 482 L 756 491 L 748 499 L 738 503 L 731 503 L 721 499 L 713 491 L 709 480 L 710 469 L 715 460 L 722 454 Z M 764 38 L 756 29 L 747 23 L 737 20 L 721 20 L 706 26 L 695 36 L 685 58 L 562 58 L 531 64 L 502 77 L 485 89 L 469 105 L 453 132 L 446 155 L 443 173 L 442 230 L 461 230 L 462 175 L 470 143 L 483 120 L 498 105 L 512 95 L 530 86 L 562 78 L 686 78 L 694 93 L 705 103 L 720 109 L 737 109 L 756 100 L 768 84 L 771 75 L 772 61 L 769 48 Z M 725 38 L 732 38 L 742 42 L 750 50 L 754 60 L 754 68 L 749 80 L 741 87 L 730 91 L 722 90 L 714 86 L 707 79 L 703 68 L 704 57 L 708 49 L 715 42 Z" fill="#FFFFFF" fill-rule="evenodd" clip-rule="evenodd"/>
</svg>
